{"title":"The Aviator [x264][AC3(5.1)] Nordic_Sub.mkv","uid":5245816,"size":2753704767,"categoryP":"video","categoryS":"movies","magnet":"?xt=urn:btih:9afaeafc2dd18b353e88227113e543f59ff9aea2&amp;dn=The+Aviator+%5Bx264%5D%5BAC3%285.1%29%5D+Nordic_Sub.mkv&amp;tr=udp%3A%2F%2Ftracker.openbittorrent.com%3A80&amp;tr=udp%3A%2F%2Fopen.demonii.com%3A1337&amp;tr=udp%3A%2F%2Ftracker.coppersurfer.tk%3A6969&amp;tr=udp%3A%2F%2Fexodus.desync.com%3A6969","seeders":1,"leechers":0,"uploader":"Zen_Bud","files":-1,"time":1261982200,"description":"General\nComplete name                    : The Aviator.mkv\nFormat                           : Matroska\nFile size                        : 2.56 GiB\nDuration                         : 2h 43mn\nOverall bit rate                 : 2 251 Kbps\n\n\nVideo\nID                               : 1\nFormat                           : AVC\nCodec ID                         : V_MPEG4/ISO/AVC\nDuration                         : 2h 43mn\nBit rate                         : 1 758 Kbps\nNominal bit rate                 : 1 777 Kbps\nWidth                            : 720 pixels\nHeight                           : 434 pixels\nDisplay aspect ratio             : 2.35:1\nFrame rate                       : 25.000 fps\nResolution                       : 8 bits\nColorimetry                      : 4:2:0\nScan type                        : Progressive\nBits/(Pixel*Frame)               : 0.225\nStream size                      : 2.00 GiB (78%)\nWriting library                  : x264 core 79\n\n\nAudio\nID                               : 2\nFormat                           : AC-3\nFormat/Info                      : Audio Coding 3\nCodec ID                         : A_AC3\nDuration                         : 2h 43mn\nBit rate mode                    : Constant\nBit rate                         : 448 Kbps\nChannel(s)                       : 6 channels\nChannel positions                : Front: L C R, Surround: L R, LFE\nSampling rate                    : 48.0 KHz\nStream size                      : 523 MiB (20%)\nLanguage                         : English\n\nText #1\nLanguage                         : Danish\n\nText #2\nLanguage                         : Finnish\n\nText #3\nLanguage                         : Norwegian\n\nText #4\nLanguage                         : Swedish\n\n\n\n","torrent":{"xt":"urn:btih:9afaeafc2dd18b353e88227113e543f59ff9aea2","amp;dn":"The+Aviator+%5Bx264%5D%5BAC3%285.1%29%5D+Nordic_Sub.mkv","amp;tr":["udp%3A%2F%2Ftracker.openbittorrent.com%3A80","udp%3A%2F%2Fopen.demonii.com%3A1337","udp%3A%2F%2Ftracker.coppersurfer.tk%3A6969","udp%3A%2F%2Fexodus.desync.com%3A6969"],"infoHash":"9afaeafc2dd18b353e88227113e543f59ff9aea2","infoHashBuffer":{"type":"Buffer","data":[154,250,234,252,45,209,139,53,62,136,34,113,19,229,67,245,159,249,174,162]},"announce":[],"urlList":[]}}